<?xml version="1.0" encoding="UTF-8"?>
<svg xmlns="http://www.w3.org/2000/svg" width="7.1in" height="7.1in" version="1.1" xmlns:xlink="http://www.w3.org/1999/xlink" viewBox="0 0 512 512">
  <defs>
    <style>
      .cls-1 {
        fill: none;
      }

      .cls-2 {
        fill: #fff;
        fill-opacity: .9;
      }

      .cls-3 {
        clip-path: url(#clippath);
      }
    </style>
    <clipPath id="clippath">
      <rect class="cls-1" x="92.3" y="92.3" width="327.4" height="327.4"/>
    </clipPath>
  </defs>
  <!-- Generator: Adobe Illustrator 28.7.1, SVG Export Plug-In . SVG Version: 1.2.0 Build 142)  -->
  <g>
    <g id="Layer_1">
      <path d="M256,0C114.6,0,0,114.6,0,256s114.6,256,256,256,256-114.6,256-256S397.4,0,256,0Z"/>
      <g class="cls-3">
        <g>
          <path class="cls-2" d="M329.6,288c-4-2-23.8-11.8-27.5-13.1-3.7-1.4-6.4-2-9.1,2-2.7,4.1-10.4,13.1-12.8,15.8-2.3,2.7-4.7,3-8.7,1-23.7-11.8-39.2-21.1-54.8-47.9-4.1-7.1,4.1-6.6,11.8-22,1.3-2.7.7-5-.4-7.1-1-2-9.1-21.9-12.4-29.9-3.3-7.9-6.6-6.8-9.1-6.9-2.3-.1-5-.1-7.7-.1s-7.1,1-10.7,5c-3.7,4.1-14.1,13.8-14.1,33.6s14.4,39,16.4,41.7c2,2.7,28.4,43.3,68.8,60.8,25.6,11,35.6,12,48.4,10.1,7.8-1.2,23.8-9.7,27.2-19.2,3.3-9.4,3.3-17.5,2.3-19.2-1-1.8-3.7-2.8-7.7-4.8Z"/>
          <path class="cls-2" d="M407,192.6c-8.3-19.6-20.1-37.2-35.2-52.4-15-15-32.8-27-52.4-35.2-20.1-8.4-41.4-12.7-63.4-12.7h-.7c-22.1.1-43.6,4.5-63.8,13.1-19.4,8.3-37,20.3-51.9,35.3-14.9,15.1-26.7,32.6-34.8,52.2-8.4,20.2-12.6,41.8-12.5,63.9.1,25.4,6.1,50.4,17.5,73.1v55.5c0,4.5,1.8,8.7,4.9,11.9,3.2,3.2,7.4,4.9,11.9,4.9h55.6c22.7,11.4,47.7,17.4,73.1,17.5h.8c21.9,0,43.1-4.2,63.1-12.5,19.5-8.1,37.2-19.9,52.2-34.8,15.1-14.9,27-32.4,35.3-51.9,8.6-20.2,13-41.6,13.1-63.8.1-22.3-4.2-43.9-12.7-64.2ZM351.8,352.6c-25.6,25.4-59.6,39.3-95.8,39.3h-.6c-22-.1-43.9-5.6-63.3-15.9l-3.1-1.6h-51.5v-51.5l-1.6-3.1c-10.3-19.3-15.8-41.2-15.9-63.3-.1-36.4,13.8-70.6,39.3-96.4,25.5-25.8,59.6-40,96-40.2h.6c18.3,0,36,3.5,52.7,10.6,16.3,6.8,30.9,16.7,43.5,29.2,12.5,12.5,22.4,27.2,29.2,43.5,7.1,16.9,10.6,34.8,10.6,53.3-.2,36.4-14.5,70.5-40.2,96Z"/>
        </g>
      </g>
    </g>
  </g>
</svg>