<?xml version="1.0" encoding="UTF-8"?>
<svg xmlns="http://www.w3.org/2000/svg" width="7.1in" height="7.1in" version="1.1" viewBox="0 0 512 512">
  <defs>
    <style>
      .cls-1 {
        fill: #fff;
      }
    </style>
  </defs>
  <!-- Generator: Adobe Illustrator 28.7.1, SVG Export Plug-In . SVG Version: 1.2.0 Build 142)  -->
  <g>
    <g id="Layer_1">
      <path d="M256,0C114.6,0,0,114.6,0,256s114.6,256,256,256,256-114.6,256-256S397.4,0,256,0Z"/>
      <path class="cls-1" d="M286,233.5l108.3-123.2h-25.7l-94.1,107-75.1-107h-86.7l113.6,161.8-113.6,129.2h25.7l99.3-113,79.3,113h86.7l-117.8-167.8ZM250.8,273.5l-11.5-16.1-91.6-128.1h39.4l73.9,103.5,11.5,16.1,96.1,134.5h-39.4l-78.4-109.8Z"/>
    </g>
  </g>
</svg>